<mxfile host="app.diagrams.net" modified="2023-05-31T02:28:14.056Z" agent="Mozilla/5.0 (Windows NT 10.0; Win64; x64) AppleWebKit/537.36 (KHTML, like Gecko) Chrome/113.0.0.0 Safari/537.36" version="21.3.4" etag="LXCbTEr37j8CS-Wuv5W7" type="github">
  <diagram name="第 1 页" id="jX_-Hz0Mh-nUSUPi9NXu">
    <mxGraphModel>
      <root>
        <mxCell id="0" />
        <mxCell id="1" parent="0" />
      </root>
    </mxGraphModel>
  </diagram>
</mxfile>
